# xmcd CD database file
#
# Track frame offsets:
#	150
#	19987
#	42404
#	58588
#	77970
#	93364
#	119487
#	141602
#	163900
#	182762
#	197007
#	221447
#	242041
#
# Disc length: 3678 seconds
#
# Revision: 0
# Processed by: cddbd v1.5.2PL0 Copyright (c) Steve Scherf et al.
# Submitted via: CDex 1.51
#
DISCID=c20e5c0d
DTITLE=Los Reyes Del Ko - Hot tin Roof
DYEAR=2007
DGENRE=Blues
TTITLE0=Cool Cool Mamma
TTITLE1=The way you make me feel
TTITLE2=Fucked up again
TTITLE3=I can't cry
TTITLE4=Elbeat de mi corazon
TTITLE5=The geat googa mooga
TTITLE6=La paloma
TTITLE7=Young boy blues
TTITLE8=The hucklebuck
TTITLE9=Divin' duck
TTITLE10=That's alright
TTITLE11=Herb smoking
TTITLE12=I just can#t leave you alone
EXTD=YEAR: 2007
EXTT0=
EXTT1=
EXTT2=
EXTT3=
EXTT4=
EXTT5=
EXTT6=
EXTT7=
EXTT8=
EXTT9=
EXTT10=
EXTT11=
EXTT12=
PLAYORDER=
